<svg xmlns="http://www.w3.org/2000/svg" width="199" height="33" fill="none" viewBox="0 0 199 33"><g fill="#FF6000" clip-path="url(#a)"><path d="m32.76 14.77-6.14 5.327a1.67 1.67 0 0 0-.473 1.47l1.45 8.558c.114.678 0 1.164-.549 1.569a1.77 1.77 0 0 1-1.88.138L17.413 27.6a1.62 1.62 0 0 0-1.526 0l-7.429 4.23c-.602.322-1.33.267-1.882-.137-.549-.405-.988-.89-.872-1.569L7.48 21.39a1.67 1.67 0 0 0-.472-1.47L.541 14.77a1.82 1.82 0 0 1-.454-1.854 1.79 1.79 0 0 1 1.442-1.23l8.413-1.495a1.64 1.64 0 0 0 1.235-.909l3.873-8.274C15.35.391 15.97 0 16.65 0c.681 0 1.3.39 1.602 1.008l3.721 8.274c.24.49.701.83 1.235.909l8.565 1.494a1.79 1.79 0 0 1 1.44 1.23c.21.655.033 1.374-.453 1.854M74.06 14.77l-6.141 5.327a1.67 1.67 0 0 0-.472 1.47l1.45 8.558c.114.678 0 1.164-.549 1.569a1.77 1.77 0 0 1-1.88.138L58.712 27.6a1.62 1.62 0 0 0-1.526 0l-7.43 4.23c-.601.322-1.33.267-1.88-.137-.55-.405-.989-.89-.874-1.569l1.777-8.735a1.67 1.67 0 0 0-.472-1.47l-6.468-5.15a1.82 1.82 0 0 1-.453-1.854 1.79 1.79 0 0 1 1.442-1.23l8.413-1.495a1.64 1.64 0 0 0 1.234-.909l3.873-8.274C56.65.391 57.27 0 57.951 0c.68 0 1.3.39 1.601 1.008l3.721 8.274c.239.49.7.83 1.235.909l8.564 1.494a1.79 1.79 0 0 1 1.44 1.23c.21.655.034 1.374-.452 1.854M115.361 14.77l-6.141 5.327a1.67 1.67 0 0 0-.472 1.47l1.45 8.558c.113.678 0 1.164-.549 1.569a1.77 1.77 0 0 1-1.881.138l-7.754-4.231a1.62 1.62 0 0 0-1.527 0l-7.428 4.23c-.602.322-1.331.267-1.882-.137-.55-.405-.988-.89-.873-1.569l1.776-8.735a1.67 1.67 0 0 0-.471-1.47l-6.468-5.15a1.82 1.82 0 0 1-.454-1.854 1.79 1.79 0 0 1 1.443-1.23l8.412-1.495a1.64 1.64 0 0 0 1.235-.909l3.873-8.274C97.95.391 98.571 0 99.251 0c.681 0 1.3.39 1.602 1.008l3.721 8.274c.239.49.701.83 1.235.909l8.564 1.494a1.79 1.79 0 0 1 1.441 1.23c.21.655.033 1.374-.453 1.854M156.661 14.77l-6.141 5.327a1.67 1.67 0 0 0-.472 1.47l1.45 8.558c.113.678 0 1.164-.549 1.569a1.77 1.77 0 0 1-1.881.138l-7.754-4.231a1.62 1.62 0 0 0-1.527 0l-7.429 4.23c-.602.322-1.33.267-1.881-.137-.55-.405-.988-.89-.873-1.569l1.776-8.735a1.67 1.67 0 0 0-.471-1.47l-6.468-5.15a1.82 1.82 0 0 1-.454-1.854 1.79 1.79 0 0 1 1.443-1.23l8.412-1.495a1.64 1.64 0 0 0 1.235-.909l3.873-8.274c.3-.617.921-1.008 1.601-1.008.681 0 1.3.39 1.602 1.008l3.721 8.274c.239.49.7.83 1.235.909l8.564 1.494a1.79 1.79 0 0 1 1.44 1.23c.21.655.034 1.374-.452 1.854M197.961 14.77l-6.142 5.327a1.67 1.67 0 0 0-.471 1.47l1.45 8.558c.113.678 0 1.164-.549 1.569a1.77 1.77 0 0 1-1.881.138l-7.754-4.231a1.62 1.62 0 0 0-1.527 0l-7.429 4.23a1.77 1.77 0 0 1-1.882-.137c-.549-.405-.987-.89-.872-1.569l1.776-8.735a1.67 1.67 0 0 0-.472-1.47l-6.467-5.15a1.82 1.82 0 0 1-.454-1.854 1.79 1.79 0 0 1 1.442-1.23l8.413-1.495a1.64 1.64 0 0 0 1.235-.909l3.873-8.274c.3-.617.921-1.008 1.601-1.008.681 0 1.299.39 1.601 1.008l3.721 8.274c.239.49.701.83 1.236.909l8.564 1.494a1.79 1.79 0 0 1 1.44 1.23c.21.655.033 1.374-.452 1.854"/></g><defs><clipPath id="a"><path fill="#fff" d="M0 0h198.501v32.039H0z"/></clipPath></defs></svg>